HIERARCHY
ROOT Hips
{
    OFFSET 0.000000 0.000000 0.000000
    CHANNELS 6 Xposition Yposition Zposition Zrotation Xrotation Yrotation
    JOINT Spine
    {
        OFFSET -0.000000 7.810951 0.000000
        CHANNELS 3 Zrotation Xrotation Yrotation
        JOINT Spine1
        {
            OFFSET -0.000000 18.868288 0.000000
            CHANNELS 3 Zrotation Xrotation Yrotation
            JOINT Neck
            {
                OFFSET -0.000000 18.790800 1.708255
                CHANNELS 3 Zrotation Xrotation Yrotation
                JOINT Head
                {
                    OFFSET -0.000000 13.335769 -1.905110
                    CHANNELS 3 Zrotation Xrotation Yrotation
                    End Site
                    {
                        OFFSET -0.000000 23.813873 0.000000
                    }
                }
            }
            JOINT LeftShoulder
            {
                OFFSET 3.868973 15.461964 -0.252686
                CHANNELS 3 Zrotation Xrotation Yrotation
                JOINT LeftArm
                {
                    OFFSET 15.258958 0.000000 0.000000
                    CHANNELS 3 Zrotation Xrotation Yrotation
                    JOINT LeftForeArm
                    {
                        OFFSET 27.600050 0.000000 0.000000
                        CHANNELS 3 Zrotation Xrotation Yrotation
                        JOINT LeftHand
                        {
                            OFFSET 23.737446 0.000000 0.000000
                            CHANNELS 3 Zrotation Xrotation Yrotation
                            End Site
                            {
                                OFFSET 14.288324 0.000000 0.000000
                            }
                        }
                    }
                }
            }
            JOINT RightShoulder
            {
                OFFSET -3.750262 15.461964 -0.252686
                CHANNELS 3 Zrotation Xrotation Yrotation
                JOINT RightArm
                {
                    OFFSET -15.258958 0.000000 0.000000
                    CHANNELS 3 Zrotation Xrotation Yrotation
                    JOINT RightForeArm
                    {
                        OFFSET -27.600050 0.000000 0.000000
                        CHANNELS 3 Zrotation Xrotation Yrotation
                        JOINT RightHand
                        {
                            OFFSET -23.737446 0.000000 0.000000
                            CHANNELS 3 Zrotation Xrotation Yrotation
                            End Site
                            {
                                OFFSET -14.288324 0.000000 0.000000
                            }
                        }
                    }
                }
            }
        }
    }
    JOINT LeftUpLeg
    {
        OFFSET 9.525549 0.000000 0.000000
        CHANNELS 3 Zrotation Xrotation Yrotation
        JOINT LeftLeg
        {
            OFFSET -0.000000 -45.198063 0.000000
            CHANNELS 3 Zrotation Xrotation Yrotation
            JOINT LeftFoot
            {
                OFFSET -0.000000 -37.850700 0.000000
                CHANNELS 3 Zrotation Xrotation Yrotation
                JOINT LeftToeBase
                {
                    OFFSET -0.000000 -6.191607 14.288324
                    CHANNELS 3 Zrotation Xrotation Yrotation
                    End Site
                    {
                        OFFSET -0.000000 0.000000 3.810220
                    }
                }
            }
        }
    }
    JOINT RightUpLeg
    {
        OFFSET -9.525549 0.000000 0.000000
        CHANNELS 3 Zrotation Xrotation Yrotation
        JOINT RightLeg
        {
            OFFSET -0.000000 -45.198063 0.000000
            CHANNELS 3 Zrotation Xrotation Yrotation
            JOINT RightFoot
            {
                OFFSET -0.000000 -37.850700 0.000000
                CHANNELS 3 Zrotation Xrotation Yrotation
                JOINT RightToeBase
                {
                    OFFSET -0.000000 -6.191607 14.288324
                    CHANNELS 3 Zrotation Xrotation Yrotation
                    End Site
                    {
                        OFFSET -0.000000 0.000000 3.810220
                    }
                }
            }
        }
    }
}
MOTION
Frames:    9
Frame Time:    0.008333
-8.136724    90.347763    233.169510    -0.041658    -0.874982    178.854080    -1.915158    -4.991395    -0.145247    1.604329    1.270430    -0.080272    4.210845    20.184225    8.418780    -4.407618    -4.496744    8.125777    21.551041    -1.880186    0.872241    -21.266884    -3.766094    -4.491233    -0.047085    -7.671655    0.375377    -10.204969    -7.947496    3.119054    -18.744234    -3.834669    -0.063640    21.772631    -4.420470    -8.569479    -4.799101    -2.108764    6.219899    12.991732    -2.340571    -4.326646    3.160242    5.806076    0.052092    -1.341075    -5.137050    4.799834    -0.818439    -2.074543    19.325508    0.000000    0.000000    0.000000    -5.833730    7.158504    -7.832750    4.817996    -7.303766    1.068279    0.436946    -0.913796    -11.534100    0.000000    0.000000    0.000000    
-8.144381    90.350952    233.167725    -0.055958    -0.870730    178.851822    -1.925350    -4.991499    -0.137188    1.605892    1.257099    -0.070792    4.283638    20.019499    8.365199    -4.494205    -4.246937    8.059894    21.542870    -1.878416    0.848763    -21.272299    -3.780776    -4.494887    -0.052173    -7.598793    0.411446    -9.966168    -7.859669    3.020852    -18.734676    -3.865175    -0.061993    21.747869    -4.383298    -8.601428    -4.820938    -2.209836    6.273901    13.656034    -2.440560    -4.134583    3.135307    5.809594    0.028099    -1.325792    -5.130020    4.823991    -0.845044    -2.084801    19.347662    0.000000    0.000000    0.000000    -5.857456    7.164703    -7.837081    4.828329    -7.314822    1.070589    0.427494    -0.889962    -11.540102    0.000000    0.000000    0.000000    
-8.142885    90.351364    233.165359    -0.052501    -0.861093    178.853302    -1.923064    -4.988360    -0.138844    1.604167    1.251181    -0.072945    4.280301    20.002573    8.374042    -4.489306    -4.218935    8.070261    21.543419    -1.877670    0.846421    -21.266924    -3.764052    -4.487533    -0.038169    -7.655648    0.371975    -10.222095    -7.931548    3.114036    -18.733801    -3.845129    -0.060823    21.752954    -4.408891    -8.577009    -4.816585    -2.226958    6.257347    13.603691    -2.453086    -4.104217    3.143090    5.814222    0.032221    -1.330831    -5.122688    4.857017    -0.854175    -2.079045    19.295536    0.000000    0.000000    0.000000    -5.491020    7.809790    -7.815809    4.828329    -7.314822    1.070589    0.201930    -0.862788    -11.641899    0.000000    0.000000    0.000000    
-8.148202    90.352722    233.163788    -0.059323    -0.863536    178.847855    -1.924182    -4.990090    -0.132309    1.596587    1.209739    -0.065544    4.285417    20.054516    8.379103    -4.487309    -4.231426    8.077730    21.538523    -1.865869    0.796341    -21.263702    -3.754773    -4.448344    -0.062053    -7.586600    0.386090    -9.965103    -7.846480    3.009803    -18.702351    -3.868376    -0.030006    21.721352    -4.388826    -8.618573    -4.814114    -2.227564    6.263436    13.586287    -2.453575    -4.109708    3.130049    5.814268    0.034879    -1.326635    -5.127777    4.869154    -0.847214    -2.059773    19.297832    0.000000    0.000000    0.000000    -5.491020    7.809790    -7.815809    4.828329    -7.314822    1.070589    -0.055129    -2.607705    -11.297745    0.000000    0.000000    0.000000    
-8.150134    90.354858    233.161377    -0.060803    -0.853721    178.854904    -1.929759    -4.979793    -0.134357    1.606467    1.171474    -0.066545    4.319725    20.103027    8.363899    -4.542595    -4.218216    8.055864    21.525457    -1.829959    0.775298    -21.265175    -3.767750    -4.455250    -0.034633    -7.643934    0.360267    -10.231509    -7.921108    3.125293    -18.695395    -3.842284    -0.007981    21.714993    -4.391098    -8.624680    -4.825584    -2.246334    6.264667    13.585300    -2.468771    -4.085773    3.129337    5.827512    0.023575    -1.328514    -5.129048    4.818362    -0.862228    -2.066944    19.356941    0.000000    0.000000    0.000000    -5.491020    7.809790    -7.815809    4.828329    -7.314822    1.070589    -0.069181    -2.582542    -11.350680    0.000000    0.000000    0.000000    
-8.152807    90.357742    233.160263    -0.064603    -0.856027    178.846832    -1.930229    -4.976951    -0.130287    1.606658    1.130829    -0.062118    4.324275    20.152655    8.373956    -4.563758    -4.237490    8.064119    21.517952    -1.819760    0.750699    -21.267342    -3.770434    -4.438952    -0.060859    -7.579703    0.388951    -9.986357    -7.840663    3.015804    -18.690512    -3.827733    0.005004    21.712673    -4.402015    -8.622276    -4.834871    -2.246724    6.261559    13.593773    -2.467612    -4.073408    3.120152    5.828125    0.036141    -1.318739    -5.137144    4.882232    -0.880391    -2.043946    19.283745    0.000000    0.000000    0.000000    -5.491020    7.809790    -7.815809    4.828329    -7.314822    1.070589    0.152240    -2.579532    -11.278327    0.000000    0.000000    0.000000    
-8.154970    90.358711    233.159897    -0.063377    -0.854132    178.846039    -1.916237    -4.980551    -0.130787    1.591765    1.123926    -0.064084    4.307139    20.147192    8.386342    -4.535115    -4.215204    8.082117    21.515564    -1.828158    0.759128    -21.259245    -3.744980    -4.443172    -0.050518    -7.653336    0.359905    -10.219572    -7.930198    3.126004    -18.680845    -3.835773    0.024937    21.709679    -4.370986    -8.644120    -4.839620    -2.259482    6.286831    13.611674    -2.480535    -4.080486    3.124258    5.831620    0.037820    -1.333349    -5.138105    4.889539    -0.882389    -2.032660    19.276478    0.000000    0.000000    0.000000    -5.491020    7.809790    -7.815809    4.828329    -7.314822    1.070589    -0.066400    -2.569410    -11.367104    0.000000    0.000000    0.000000    
-8.155314    90.360107    233.160217    -0.066572    -0.851069    178.839508    -1.914825    -4.975268    -0.134594    1.589186    1.101370    -0.067320    4.304350    20.162693    8.395686    -4.543348    -4.210814    8.091113    21.507536    -1.817402    0.762377    -21.250566    -3.782262    -4.441231    -0.065031    -7.644203    0.368317    -10.236596    -7.923163    3.144979    -18.684082    -3.862310    0.055012    21.714846    -4.375912    -8.661386    -4.843487    -2.237974    6.285875    13.559933    -2.457489    -4.084503    3.121546    5.838802    0.043328    -1.334050    -5.140117    4.840902    -0.854668    -2.028177    19.314610    0.000000    0.000000    0.000000    -5.491020    7.809790    -7.815809    4.828329    -7.314822    1.070589    -0.089129    -2.562786    -11.365757    0.000000    0.000000    0.000000    
-8.160207    90.363914    233.157776    -0.074287    -0.841734    178.847275    -1.915338    -4.969786    -0.137309    1.583517    1.080038    -0.070156    4.287352    20.175491    8.411838    -4.513230    -4.193571    8.113838    21.496210    -1.808656    0.753021    -21.236319    -3.805223    -4.446927    -0.083257    -7.637329    0.380056    -10.242817    -7.917984    3.162768    -18.682365    -3.854484    0.072313    21.720348    -4.353169    -8.676797    -4.819705    -2.167755    6.265029    12.958390    -2.390141    -4.281888    3.106618    5.847869    0.037936    -1.322023    -5.139538    4.869147    -0.896387    -2.028554    19.287415    0.000000    0.000000    0.000000    -5.491020    7.809790    -7.815809    4.828329    -7.314822    1.070589    0.098942    -2.537974    -11.381855    0.000000    0.000000    0.000000    
